<svg width="126" height="16" viewBox="0 0 126 16" fill="none" xmlns="http://www.w3.org/2000/svg">
<path d="M15.0421 3.20722C16.0249 3.21013 16.9832 3.51455 17.7877 4.07942C18.5923 4.6443 19.2044 5.44247 19.5417 6.36634C19.6377 6.62753 19.7097 6.89698 19.7567 7.17131C19.807 7.44609 19.8333 7.72476 19.8351 8.00412C19.8336 8.2835 19.8074 8.5622 19.7567 8.83694C19.7101 9.11218 19.6381 9.3825 19.5417 9.64443C19.4468 9.90731 19.3291 10.1614 19.1901 10.4038C19.0504 10.6418 18.8914 10.8679 18.7146 11.0797C18.1745 11.7253 17.4739 12.2171 16.6834 12.5055C15.8929 12.7938 15.0405 12.8686 14.2119 12.7223C13.3833 12.576 12.6079 12.2138 11.9638 11.6721C11.3196 11.1305 10.8294 10.4285 10.5426 9.63684C10.3511 9.11106 10.2519 8.55613 10.2492 7.99653C10.2514 7.7173 10.2768 7.43874 10.3251 7.16372L7.17871 6.60935C7.01595 7.53036 7.01595 8.47282 7.17871 9.39383C7.44189 10.8927 8.12733 12.2851 9.15438 13.4072C10.1814 14.5294 11.5074 15.3346 12.9762 15.7282C14.445 16.1218 15.9955 16.0873 17.4454 15.6288C18.8953 15.1703 20.1842 14.3069 21.1604 13.1402C21.46 12.7855 21.7266 12.4042 21.9571 12.0011C22.1931 11.5985 22.3912 11.1748 22.5489 10.7354C22.7076 10.2979 22.8278 9.84728 22.9081 9.38877C23.0709 8.46776 23.0709 7.5253 22.9081 6.60429C22.5841 4.75306 21.6178 3.07564 20.1793 1.86751C18.7408 0.659381 16.9225 -0.00195288 15.0447 4.33182e-06L15.0421 3.20722Z" fill="#FF7A00"/>
<path d="M7.99814 3.20725C6.72765 3.21321 5.5107 3.72012 4.61113 4.61806C3.71156 5.51601 3.20188 6.73262 3.19257 8.00415C3.19856 8.56345 3.29772 9.11782 3.48596 9.64446C3.82136 10.5697 4.43328 11.3691 5.23855 11.934C6.04382 12.4989 7.00336 12.802 7.98676 12.802C8.97016 12.802 9.92971 12.4989 10.735 11.934C11.5402 11.3691 12.1522 10.5697 12.4876 9.64446C12.5837 9.38224 12.6565 9.11202 12.7051 8.83697C12.7537 8.56199 12.7791 8.2834 12.7809 8.00415C12.7787 7.72493 12.7534 7.44637 12.7051 7.17134L15.8515 6.61698C16.0142 7.53799 16.0142 8.48044 15.8515 9.40146C15.7724 9.86023 15.6522 10.3109 15.4923 10.7481C14.9294 12.2874 13.9076 13.6165 12.5652 14.5554C11.2228 15.4944 9.62454 15.998 7.98676 15.998C6.34899 15.998 4.75075 15.4944 3.40833 14.5554C2.06591 13.6165 1.04411 12.2874 0.481222 10.7481C0.323703 10.3102 0.203556 9.8597 0.122069 9.40146C-0.0406897 8.48044 -0.0406897 7.53799 0.122069 6.61698C0.203556 6.15874 0.323703 5.70823 0.481222 5.2703C1.04229 3.72895 2.06357 2.39768 3.40649 1.45713C4.74941 0.516578 6.34894 0.0122911 7.98803 0.0126956L7.99814 3.20725Z" fill="#EA002C"/>
<path d="M30.9741 7.8522H27.9668V6.20936H36.6902V7.8522H33.6551V9.58618H30.9741V7.8522ZM32.3019 5.7284C31.7665 5.73505 31.2327 5.66689 30.7161 5.5259C30.284 5.40759 29.8775 5.21019 29.5172 4.94369C29.1989 4.71187 28.9409 4.40693 28.7648 4.05453C28.5888 3.70213 28.4998 3.31257 28.5055 2.91861C28.5001 2.52844 28.5868 2.14251 28.7585 1.79216C28.9381 1.43831 29.1979 1.13143 29.5172 0.896063C29.8777 0.630402 30.2841 0.433862 30.7161 0.316386C31.7557 0.0429754 32.8482 0.0429754 33.8878 0.316386C34.3197 0.433862 34.7262 0.630402 35.0866 0.896063C35.4052 1.13218 35.6649 1.43888 35.8454 1.79216C36.0151 2.14338 36.1033 2.52847 36.1033 2.91861C36.1033 3.30875 36.0151 3.69384 35.8454 4.04506C35.6659 4.39825 35.406 4.70432 35.0866 4.93862C34.7264 5.20513 34.3199 5.40253 33.8878 5.52083C33.3719 5.66696 32.8381 5.74023 32.3019 5.73853V5.7284ZM32.3019 4.14125C32.6856 4.15632 33.0637 4.04615 33.3794 3.82736C33.5204 3.72517 33.6326 3.58831 33.7053 3.43C33.7779 3.27169 33.8086 3.09729 33.7942 2.92367C33.8049 2.75063 33.7732 2.5776 33.7017 2.41964C33.6303 2.26169 33.5214 2.12362 33.3844 2.01745C33.0652 1.81236 32.6939 1.70333 32.3146 1.70333C31.9353 1.70333 31.5639 1.81236 31.2447 2.01745C31.1046 2.12167 30.9925 2.25896 30.9184 2.41709C30.8443 2.57521 30.8104 2.74926 30.8198 2.92367C30.8054 3.09729 30.836 3.27169 30.9087 3.43C30.9814 3.58831 31.0936 3.72517 31.2346 3.82736C31.548 4.04291 31.9219 4.15286 32.3019 4.14125ZM31.0651 10.176H42.8337V13.7578H33.7588V14.5172H42.8337V15.9753H32.8558C32.3811 15.999 31.9153 15.8406 31.5533 15.5323C31.3887 15.3768 31.2598 15.1874 31.1755 14.9772C31.0912 14.767 31.0536 14.5409 31.0651 14.3147V12.3023H40.1401V11.6366H31.0651V10.176ZM34.5884 8.26987H37.0974V0.283477H39.6039V9.49504H34.5884V8.26987ZM40.3247 0.278414H42.8337V9.48998H40.3247V0.278414Z" fill="#EA002C"/>
<path d="M45.5068 7.92591C46.3369 7.74678 47.1357 7.44476 47.8767 7.02982C48.6342 6.6149 49.3069 6.06102 49.8597 5.3971H45.56V3.75426H50.798C50.9858 3.23125 51.0974 2.68394 51.1294 2.12913H45.8382V0.486288H53.8432V1.41023C53.8451 1.88039 53.8045 2.34976 53.7218 2.8126C53.6453 3.24341 53.5319 3.66686 53.3829 4.07827H56.1853V0.28125H58.8764V8.97896H56.1853V5.73883H52.4951C51.8217 6.65585 50.9591 7.41726 49.9659 7.97148C48.833 8.60914 47.6152 9.08218 46.3491 9.37637L45.5068 7.92591ZM49.4727 15.9731C48.8809 15.9731 48.461 15.8364 48.2081 15.568C47.931 15.2177 47.7964 14.7756 47.8312 14.3302V9.68014H58.8764V15.9731H49.4727ZM56.1853 11.3204H50.5223V14.3302H56.1853V11.3204Z" fill="#EA002C"/>
<path d="M70.9387 6.96596H69.9067C69.8842 7.79063 69.7314 8.60654 69.454 9.38339C69.2441 9.96844 68.918 10.5049 68.4954 10.9604C68.1298 11.3463 67.6783 11.6403 67.1777 11.8185C66.6792 11.9911 66.1547 12.0767 65.6273 12.0717C65.0672 12.0748 64.5112 11.9771 63.9858 11.7831C63.4557 11.5837 62.9862 11.2506 62.6225 10.8161C62.1899 10.2893 61.8697 9.67936 61.6816 9.02394C61.2129 7.22041 61.2129 5.32686 61.6816 3.52333C61.8702 2.86888 62.1904 2.25988 62.6225 1.73366C62.9865 1.29898 63.4559 0.965145 63.9858 0.764161C64.5117 0.572296 65.0675 0.475443 65.6273 0.478118C66.1438 0.475724 66.657 0.561324 67.1448 0.731253C67.6335 0.901118 68.0779 1.17882 68.4448 1.54381C68.8653 1.969 69.1919 2.47781 69.4034 3.03731C69.6794 3.76804 69.8448 4.53591 69.8941 5.31552H70.9437V0.283203H73.4528V15.8814H70.9437L70.9387 6.96596ZM65.6273 10.0669C65.8497 10.0673 66.0697 10.0198 66.2722 9.92763C66.5135 9.80634 66.7107 9.61248 66.8362 9.37327C67.0321 9.01269 67.1687 8.62296 67.2409 8.21898C67.45 6.93562 67.45 5.62684 67.2409 4.34349C67.1683 3.94041 67.0317 3.55157 66.8362 3.19172C66.7107 2.95251 66.5135 2.75865 66.2722 2.63736C66.0697 2.54517 65.8497 2.49769 65.6273 2.49813C65.4048 2.49824 65.185 2.5457 64.9823 2.63736C64.7409 2.75751 64.5441 2.95175 64.4208 3.19172C64.2233 3.55089 64.0858 3.93993 64.0136 4.34349C63.8045 5.62684 63.8045 6.93562 64.0136 8.21898C64.0854 8.62344 64.2229 9.01337 64.4208 9.37327C64.5441 9.61324 64.7409 9.80748 64.9823 9.92763C65.185 10.0193 65.4048 10.0668 65.6273 10.0669ZM74.4442 0.283203H76.9507V15.9776H74.4442V0.283203Z" fill="#FF7A00"/>
<path d="M78.1318 11.3758H93.1278V13.0186H78.1318V11.3758ZM79.7935 0.675781H91.466V2.31863H89.7158V7.39397H91.6507V9.02922H79.6089V7.38638H81.564V2.31356H79.7935V0.675781ZM84.2551 7.39397H87.0221V2.31356H84.2551V7.39397Z" fill="#FF7A00"/>
<path d="M98.639 9.16063C98.1187 9.16234 97.6015 9.08204 97.1062 8.92269C96.6206 8.76723 96.1745 8.50813 95.7986 8.16328C95.3936 7.77868 95.0784 7.30934 94.8754 6.78876C94.41 5.46239 94.41 4.01689 94.8754 2.69052C95.0774 2.16943 95.3927 1.69989 95.7986 1.31599C96.1738 0.970288 96.6202 0.711073 97.1062 0.556589C98.1021 0.235929 99.1733 0.235929 100.169 0.556589C100.656 0.711563 101.103 0.970697 101.479 1.31599C101.883 1.70085 102.198 2.17017 102.4 2.69052C102.869 4.01633 102.869 5.46294 102.4 6.78876C102.197 7.30853 101.882 7.77762 101.479 8.16328C101.102 8.50799 100.655 8.76705 100.169 8.92269C99.6748 9.08207 99.1584 9.16237 98.639 9.16063ZM98.639 7.25959C98.8629 7.26175 99.0852 7.22138 99.294 7.14062C99.5063 7.05326 99.6907 6.90976 99.8277 6.72548C99.9999 6.48999 100.125 6.22359 100.197 5.94076C100.379 5.14526 100.379 4.31883 100.197 3.52333C100.125 3.2405 99.9999 2.9741 99.8277 2.73861C99.6907 2.55433 99.5063 2.41082 99.294 2.32347C99.0858 2.23924 98.8635 2.19543 98.639 2.19437C98.4148 2.19239 98.1924 2.23365 97.9839 2.31587C97.7707 2.40284 97.5853 2.54637 97.4477 2.73101C97.2764 2.9667 97.1519 3.23309 97.0809 3.51573C96.8954 4.31085 96.8954 5.13805 97.0809 5.93317C97.1519 6.21581 97.2764 6.4822 97.4477 6.71788C97.586 6.9019 97.7712 7.04529 97.9839 7.13303C98.1922 7.21618 98.4147 7.2583 98.639 7.25706V7.25959ZM98.8919 15.9725C98.3 15.9725 97.8802 15.8358 97.6273 15.5675C97.3502 15.2172 97.2156 14.775 97.2504 14.3296V10.3985H99.9415V14.3296H110.142V15.9725H98.8919ZM107.264 6.13568H106.176V11.7451H103.667V0.283203H106.176V4.49283H107.264V0.283203H109.773V11.7451H107.264V6.13568Z" fill="#FF7A00"/>
<path d="M122.581 11.8141H114.235C113.643 11.8141 113.223 11.6799 112.97 11.4091C112.693 11.0588 112.558 10.6167 112.593 10.1713V0.676177H120.32V2.31902H115.295V10.1662H122.581V0.293945H125.272V15.9883H122.581V11.8141Z" fill="#FF7A00"/>
</svg>
